%TF.GenerationSoftware,KiCad,Pcbnew,9.0.2*%
%TF.CreationDate,2025-08-03T14:20:54-04:00*%
%TF.ProjectId,hp_extension,68705f65-7874-4656-9e73-696f6e2e6b69,AA*%
%TF.SameCoordinates,Original*%
%TF.FileFunction,Legend,Bot*%
%TF.FilePolarity,Positive*%
%FSLAX46Y46*%
G04 Gerber Fmt 4.6, Leading zero omitted, Abs format (unit mm)*
G04 Created by KiCad (PCBNEW 9.0.2) date 2025-08-03 14:20:54*
%MOMM*%
%LPD*%
G01*
G04 APERTURE LIST*
%ADD10C,0.100000*%
G04 APERTURE END LIST*
D10*
X59700878Y-63478609D02*
X59558021Y-63526228D01*
X59558021Y-63526228D02*
X59510402Y-63573847D01*
X59510402Y-63573847D02*
X59462783Y-63669085D01*
X59462783Y-63669085D02*
X59462783Y-63811942D01*
X59462783Y-63811942D02*
X59510402Y-63907180D01*
X59510402Y-63907180D02*
X59558021Y-63954800D01*
X59558021Y-63954800D02*
X59653259Y-64002419D01*
X59653259Y-64002419D02*
X60034211Y-64002419D01*
X60034211Y-64002419D02*
X60034211Y-63002419D01*
X60034211Y-63002419D02*
X59700878Y-63002419D01*
X59700878Y-63002419D02*
X59605640Y-63050038D01*
X59605640Y-63050038D02*
X59558021Y-63097657D01*
X59558021Y-63097657D02*
X59510402Y-63192895D01*
X59510402Y-63192895D02*
X59510402Y-63288133D01*
X59510402Y-63288133D02*
X59558021Y-63383371D01*
X59558021Y-63383371D02*
X59605640Y-63430990D01*
X59605640Y-63430990D02*
X59700878Y-63478609D01*
X59700878Y-63478609D02*
X60034211Y-63478609D01*
X58558021Y-63002419D02*
X59034211Y-63002419D01*
X59034211Y-63002419D02*
X59081830Y-63478609D01*
X59081830Y-63478609D02*
X59034211Y-63430990D01*
X59034211Y-63430990D02*
X58938973Y-63383371D01*
X58938973Y-63383371D02*
X58700878Y-63383371D01*
X58700878Y-63383371D02*
X58605640Y-63430990D01*
X58605640Y-63430990D02*
X58558021Y-63478609D01*
X58558021Y-63478609D02*
X58510402Y-63573847D01*
X58510402Y-63573847D02*
X58510402Y-63811942D01*
X58510402Y-63811942D02*
X58558021Y-63907180D01*
X58558021Y-63907180D02*
X58605640Y-63954800D01*
X58605640Y-63954800D02*
X58700878Y-64002419D01*
X58700878Y-64002419D02*
X58938973Y-64002419D01*
X58938973Y-64002419D02*
X59034211Y-63954800D01*
X59034211Y-63954800D02*
X59081830Y-63907180D01*
X99562782Y-63578609D02*
X99419925Y-63626228D01*
X99419925Y-63626228D02*
X99372306Y-63673847D01*
X99372306Y-63673847D02*
X99324687Y-63769085D01*
X99324687Y-63769085D02*
X99324687Y-63911942D01*
X99324687Y-63911942D02*
X99372306Y-64007180D01*
X99372306Y-64007180D02*
X99419925Y-64054800D01*
X99419925Y-64054800D02*
X99515163Y-64102419D01*
X99515163Y-64102419D02*
X99896115Y-64102419D01*
X99896115Y-64102419D02*
X99896115Y-63102419D01*
X99896115Y-63102419D02*
X99562782Y-63102419D01*
X99562782Y-63102419D02*
X99467544Y-63150038D01*
X99467544Y-63150038D02*
X99419925Y-63197657D01*
X99419925Y-63197657D02*
X99372306Y-63292895D01*
X99372306Y-63292895D02*
X99372306Y-63388133D01*
X99372306Y-63388133D02*
X99419925Y-63483371D01*
X99419925Y-63483371D02*
X99467544Y-63530990D01*
X99467544Y-63530990D02*
X99562782Y-63578609D01*
X99562782Y-63578609D02*
X99896115Y-63578609D01*
X98372306Y-64102419D02*
X98943734Y-64102419D01*
X98658020Y-64102419D02*
X98658020Y-63102419D01*
X98658020Y-63102419D02*
X98753258Y-63245276D01*
X98753258Y-63245276D02*
X98848496Y-63340514D01*
X98848496Y-63340514D02*
X98943734Y-63388133D01*
X97467544Y-63102419D02*
X97943734Y-63102419D01*
X97943734Y-63102419D02*
X97991353Y-63578609D01*
X97991353Y-63578609D02*
X97943734Y-63530990D01*
X97943734Y-63530990D02*
X97848496Y-63483371D01*
X97848496Y-63483371D02*
X97610401Y-63483371D01*
X97610401Y-63483371D02*
X97515163Y-63530990D01*
X97515163Y-63530990D02*
X97467544Y-63578609D01*
X97467544Y-63578609D02*
X97419925Y-63673847D01*
X97419925Y-63673847D02*
X97419925Y-63911942D01*
X97419925Y-63911942D02*
X97467544Y-64007180D01*
X97467544Y-64007180D02*
X97515163Y-64054800D01*
X97515163Y-64054800D02*
X97610401Y-64102419D01*
X97610401Y-64102419D02*
X97848496Y-64102419D01*
X97848496Y-64102419D02*
X97943734Y-64054800D01*
X97943734Y-64054800D02*
X97991353Y-64007180D01*
X159062782Y-63578609D02*
X158919925Y-63626228D01*
X158919925Y-63626228D02*
X158872306Y-63673847D01*
X158872306Y-63673847D02*
X158824687Y-63769085D01*
X158824687Y-63769085D02*
X158824687Y-63911942D01*
X158824687Y-63911942D02*
X158872306Y-64007180D01*
X158872306Y-64007180D02*
X158919925Y-64054800D01*
X158919925Y-64054800D02*
X159015163Y-64102419D01*
X159015163Y-64102419D02*
X159396115Y-64102419D01*
X159396115Y-64102419D02*
X159396115Y-63102419D01*
X159396115Y-63102419D02*
X159062782Y-63102419D01*
X159062782Y-63102419D02*
X158967544Y-63150038D01*
X158967544Y-63150038D02*
X158919925Y-63197657D01*
X158919925Y-63197657D02*
X158872306Y-63292895D01*
X158872306Y-63292895D02*
X158872306Y-63388133D01*
X158872306Y-63388133D02*
X158919925Y-63483371D01*
X158919925Y-63483371D02*
X158967544Y-63530990D01*
X158967544Y-63530990D02*
X159062782Y-63578609D01*
X159062782Y-63578609D02*
X159396115Y-63578609D01*
X158491353Y-63102419D02*
X157872306Y-63102419D01*
X157872306Y-63102419D02*
X158205639Y-63483371D01*
X158205639Y-63483371D02*
X158062782Y-63483371D01*
X158062782Y-63483371D02*
X157967544Y-63530990D01*
X157967544Y-63530990D02*
X157919925Y-63578609D01*
X157919925Y-63578609D02*
X157872306Y-63673847D01*
X157872306Y-63673847D02*
X157872306Y-63911942D01*
X157872306Y-63911942D02*
X157919925Y-64007180D01*
X157919925Y-64007180D02*
X157967544Y-64054800D01*
X157967544Y-64054800D02*
X158062782Y-64102419D01*
X158062782Y-64102419D02*
X158348496Y-64102419D01*
X158348496Y-64102419D02*
X158443734Y-64054800D01*
X158443734Y-64054800D02*
X158491353Y-64007180D01*
X157253258Y-63102419D02*
X157158020Y-63102419D01*
X157158020Y-63102419D02*
X157062782Y-63150038D01*
X157062782Y-63150038D02*
X157015163Y-63197657D01*
X157015163Y-63197657D02*
X156967544Y-63292895D01*
X156967544Y-63292895D02*
X156919925Y-63483371D01*
X156919925Y-63483371D02*
X156919925Y-63721466D01*
X156919925Y-63721466D02*
X156967544Y-63911942D01*
X156967544Y-63911942D02*
X157015163Y-64007180D01*
X157015163Y-64007180D02*
X157062782Y-64054800D01*
X157062782Y-64054800D02*
X157158020Y-64102419D01*
X157158020Y-64102419D02*
X157253258Y-64102419D01*
X157253258Y-64102419D02*
X157348496Y-64054800D01*
X157348496Y-64054800D02*
X157396115Y-64007180D01*
X157396115Y-64007180D02*
X157443734Y-63911942D01*
X157443734Y-63911942D02*
X157491353Y-63721466D01*
X157491353Y-63721466D02*
X157491353Y-63483371D01*
X157491353Y-63483371D02*
X157443734Y-63292895D01*
X157443734Y-63292895D02*
X157396115Y-63197657D01*
X157396115Y-63197657D02*
X157348496Y-63150038D01*
X157348496Y-63150038D02*
X157253258Y-63102419D01*
X79962782Y-63278609D02*
X79819925Y-63326228D01*
X79819925Y-63326228D02*
X79772306Y-63373847D01*
X79772306Y-63373847D02*
X79724687Y-63469085D01*
X79724687Y-63469085D02*
X79724687Y-63611942D01*
X79724687Y-63611942D02*
X79772306Y-63707180D01*
X79772306Y-63707180D02*
X79819925Y-63754800D01*
X79819925Y-63754800D02*
X79915163Y-63802419D01*
X79915163Y-63802419D02*
X80296115Y-63802419D01*
X80296115Y-63802419D02*
X80296115Y-62802419D01*
X80296115Y-62802419D02*
X79962782Y-62802419D01*
X79962782Y-62802419D02*
X79867544Y-62850038D01*
X79867544Y-62850038D02*
X79819925Y-62897657D01*
X79819925Y-62897657D02*
X79772306Y-62992895D01*
X79772306Y-62992895D02*
X79772306Y-63088133D01*
X79772306Y-63088133D02*
X79819925Y-63183371D01*
X79819925Y-63183371D02*
X79867544Y-63230990D01*
X79867544Y-63230990D02*
X79962782Y-63278609D01*
X79962782Y-63278609D02*
X80296115Y-63278609D01*
X78772306Y-63802419D02*
X79343734Y-63802419D01*
X79058020Y-63802419D02*
X79058020Y-62802419D01*
X79058020Y-62802419D02*
X79153258Y-62945276D01*
X79153258Y-62945276D02*
X79248496Y-63040514D01*
X79248496Y-63040514D02*
X79343734Y-63088133D01*
X78153258Y-62802419D02*
X78058020Y-62802419D01*
X78058020Y-62802419D02*
X77962782Y-62850038D01*
X77962782Y-62850038D02*
X77915163Y-62897657D01*
X77915163Y-62897657D02*
X77867544Y-62992895D01*
X77867544Y-62992895D02*
X77819925Y-63183371D01*
X77819925Y-63183371D02*
X77819925Y-63421466D01*
X77819925Y-63421466D02*
X77867544Y-63611942D01*
X77867544Y-63611942D02*
X77915163Y-63707180D01*
X77915163Y-63707180D02*
X77962782Y-63754800D01*
X77962782Y-63754800D02*
X78058020Y-63802419D01*
X78058020Y-63802419D02*
X78153258Y-63802419D01*
X78153258Y-63802419D02*
X78248496Y-63754800D01*
X78248496Y-63754800D02*
X78296115Y-63707180D01*
X78296115Y-63707180D02*
X78343734Y-63611942D01*
X78343734Y-63611942D02*
X78391353Y-63421466D01*
X78391353Y-63421466D02*
X78391353Y-63183371D01*
X78391353Y-63183371D02*
X78343734Y-62992895D01*
X78343734Y-62992895D02*
X78296115Y-62897657D01*
X78296115Y-62897657D02*
X78248496Y-62850038D01*
X78248496Y-62850038D02*
X78153258Y-62802419D01*
X43700878Y-63478609D02*
X43558021Y-63526228D01*
X43558021Y-63526228D02*
X43510402Y-63573847D01*
X43510402Y-63573847D02*
X43462783Y-63669085D01*
X43462783Y-63669085D02*
X43462783Y-63811942D01*
X43462783Y-63811942D02*
X43510402Y-63907180D01*
X43510402Y-63907180D02*
X43558021Y-63954800D01*
X43558021Y-63954800D02*
X43653259Y-64002419D01*
X43653259Y-64002419D02*
X44034211Y-64002419D01*
X44034211Y-64002419D02*
X44034211Y-63002419D01*
X44034211Y-63002419D02*
X43700878Y-63002419D01*
X43700878Y-63002419D02*
X43605640Y-63050038D01*
X43605640Y-63050038D02*
X43558021Y-63097657D01*
X43558021Y-63097657D02*
X43510402Y-63192895D01*
X43510402Y-63192895D02*
X43510402Y-63288133D01*
X43510402Y-63288133D02*
X43558021Y-63383371D01*
X43558021Y-63383371D02*
X43605640Y-63430990D01*
X43605640Y-63430990D02*
X43700878Y-63478609D01*
X43700878Y-63478609D02*
X44034211Y-63478609D01*
X42510402Y-64002419D02*
X43081830Y-64002419D01*
X42796116Y-64002419D02*
X42796116Y-63002419D01*
X42796116Y-63002419D02*
X42891354Y-63145276D01*
X42891354Y-63145276D02*
X42986592Y-63240514D01*
X42986592Y-63240514D02*
X43081830Y-63288133D01*
X119362782Y-63678609D02*
X119219925Y-63726228D01*
X119219925Y-63726228D02*
X119172306Y-63773847D01*
X119172306Y-63773847D02*
X119124687Y-63869085D01*
X119124687Y-63869085D02*
X119124687Y-64011942D01*
X119124687Y-64011942D02*
X119172306Y-64107180D01*
X119172306Y-64107180D02*
X119219925Y-64154800D01*
X119219925Y-64154800D02*
X119315163Y-64202419D01*
X119315163Y-64202419D02*
X119696115Y-64202419D01*
X119696115Y-64202419D02*
X119696115Y-63202419D01*
X119696115Y-63202419D02*
X119362782Y-63202419D01*
X119362782Y-63202419D02*
X119267544Y-63250038D01*
X119267544Y-63250038D02*
X119219925Y-63297657D01*
X119219925Y-63297657D02*
X119172306Y-63392895D01*
X119172306Y-63392895D02*
X119172306Y-63488133D01*
X119172306Y-63488133D02*
X119219925Y-63583371D01*
X119219925Y-63583371D02*
X119267544Y-63630990D01*
X119267544Y-63630990D02*
X119362782Y-63678609D01*
X119362782Y-63678609D02*
X119696115Y-63678609D01*
X118743734Y-63297657D02*
X118696115Y-63250038D01*
X118696115Y-63250038D02*
X118600877Y-63202419D01*
X118600877Y-63202419D02*
X118362782Y-63202419D01*
X118362782Y-63202419D02*
X118267544Y-63250038D01*
X118267544Y-63250038D02*
X118219925Y-63297657D01*
X118219925Y-63297657D02*
X118172306Y-63392895D01*
X118172306Y-63392895D02*
X118172306Y-63488133D01*
X118172306Y-63488133D02*
X118219925Y-63630990D01*
X118219925Y-63630990D02*
X118791353Y-64202419D01*
X118791353Y-64202419D02*
X118172306Y-64202419D01*
X117553258Y-63202419D02*
X117458020Y-63202419D01*
X117458020Y-63202419D02*
X117362782Y-63250038D01*
X117362782Y-63250038D02*
X117315163Y-63297657D01*
X117315163Y-63297657D02*
X117267544Y-63392895D01*
X117267544Y-63392895D02*
X117219925Y-63583371D01*
X117219925Y-63583371D02*
X117219925Y-63821466D01*
X117219925Y-63821466D02*
X117267544Y-64011942D01*
X117267544Y-64011942D02*
X117315163Y-64107180D01*
X117315163Y-64107180D02*
X117362782Y-64154800D01*
X117362782Y-64154800D02*
X117458020Y-64202419D01*
X117458020Y-64202419D02*
X117553258Y-64202419D01*
X117553258Y-64202419D02*
X117648496Y-64154800D01*
X117648496Y-64154800D02*
X117696115Y-64107180D01*
X117696115Y-64107180D02*
X117743734Y-64011942D01*
X117743734Y-64011942D02*
X117791353Y-63821466D01*
X117791353Y-63821466D02*
X117791353Y-63583371D01*
X117791353Y-63583371D02*
X117743734Y-63392895D01*
X117743734Y-63392895D02*
X117696115Y-63297657D01*
X117696115Y-63297657D02*
X117648496Y-63250038D01*
X117648496Y-63250038D02*
X117553258Y-63202419D01*
X139162782Y-63678609D02*
X139019925Y-63726228D01*
X139019925Y-63726228D02*
X138972306Y-63773847D01*
X138972306Y-63773847D02*
X138924687Y-63869085D01*
X138924687Y-63869085D02*
X138924687Y-64011942D01*
X138924687Y-64011942D02*
X138972306Y-64107180D01*
X138972306Y-64107180D02*
X139019925Y-64154800D01*
X139019925Y-64154800D02*
X139115163Y-64202419D01*
X139115163Y-64202419D02*
X139496115Y-64202419D01*
X139496115Y-64202419D02*
X139496115Y-63202419D01*
X139496115Y-63202419D02*
X139162782Y-63202419D01*
X139162782Y-63202419D02*
X139067544Y-63250038D01*
X139067544Y-63250038D02*
X139019925Y-63297657D01*
X139019925Y-63297657D02*
X138972306Y-63392895D01*
X138972306Y-63392895D02*
X138972306Y-63488133D01*
X138972306Y-63488133D02*
X139019925Y-63583371D01*
X139019925Y-63583371D02*
X139067544Y-63630990D01*
X139067544Y-63630990D02*
X139162782Y-63678609D01*
X139162782Y-63678609D02*
X139496115Y-63678609D01*
X138543734Y-63297657D02*
X138496115Y-63250038D01*
X138496115Y-63250038D02*
X138400877Y-63202419D01*
X138400877Y-63202419D02*
X138162782Y-63202419D01*
X138162782Y-63202419D02*
X138067544Y-63250038D01*
X138067544Y-63250038D02*
X138019925Y-63297657D01*
X138019925Y-63297657D02*
X137972306Y-63392895D01*
X137972306Y-63392895D02*
X137972306Y-63488133D01*
X137972306Y-63488133D02*
X138019925Y-63630990D01*
X138019925Y-63630990D02*
X138591353Y-64202419D01*
X138591353Y-64202419D02*
X137972306Y-64202419D01*
X137067544Y-63202419D02*
X137543734Y-63202419D01*
X137543734Y-63202419D02*
X137591353Y-63678609D01*
X137591353Y-63678609D02*
X137543734Y-63630990D01*
X137543734Y-63630990D02*
X137448496Y-63583371D01*
X137448496Y-63583371D02*
X137210401Y-63583371D01*
X137210401Y-63583371D02*
X137115163Y-63630990D01*
X137115163Y-63630990D02*
X137067544Y-63678609D01*
X137067544Y-63678609D02*
X137019925Y-63773847D01*
X137019925Y-63773847D02*
X137019925Y-64011942D01*
X137019925Y-64011942D02*
X137067544Y-64107180D01*
X137067544Y-64107180D02*
X137115163Y-64154800D01*
X137115163Y-64154800D02*
X137210401Y-64202419D01*
X137210401Y-64202419D02*
X137448496Y-64202419D01*
X137448496Y-64202419D02*
X137543734Y-64154800D01*
X137543734Y-64154800D02*
X137591353Y-64107180D01*
M02*
