%TF.GenerationSoftware,KiCad,Pcbnew,9.0.2*%
%TF.CreationDate,2025-08-03T14:20:54-04:00*%
%TF.ProjectId,hp_extension,68705f65-7874-4656-9e73-696f6e2e6b69,AA*%
%TF.SameCoordinates,Original*%
%TF.FileFunction,Copper,L2,Bot*%
%TF.FilePolarity,Positive*%
%FSLAX46Y46*%
G04 Gerber Fmt 4.6, Leading zero omitted, Abs format (unit mm)*
G04 Created by KiCad (PCBNEW 9.0.2) date 2025-08-03 14:20:54*
%MOMM*%
%LPD*%
G01*
G04 APERTURE LIST*
G04 Aperture macros list*
%AMRoundRect*
0 Rectangle with rounded corners*
0 $1 Rounding radius*
0 $2 $3 $4 $5 $6 $7 $8 $9 X,Y pos of 4 corners*
0 Add a 4 corners polygon primitive as box body*
4,1,4,$2,$3,$4,$5,$6,$7,$8,$9,$2,$3,0*
0 Add four circle primitives for the rounded corners*
1,1,$1+$1,$2,$3*
1,1,$1+$1,$4,$5*
1,1,$1+$1,$6,$7*
1,1,$1+$1,$8,$9*
0 Add four rect primitives between the rounded corners*
20,1,$1+$1,$2,$3,$4,$5,0*
20,1,$1+$1,$4,$5,$6,$7,0*
20,1,$1+$1,$6,$7,$8,$9,0*
20,1,$1+$1,$8,$9,$2,$3,0*%
G04 Aperture macros list end*
%TA.AperFunction,SMDPad,CuDef*%
%ADD10RoundRect,0.300000X-0.700000X-2.930000X0.700000X-2.930000X0.700000X2.930000X-0.700000X2.930000X0*%
%TD*%
%TA.AperFunction,SMDPad,CuDef*%
%ADD11RoundRect,0.300000X0.700000X2.930000X-0.700000X2.930000X-0.700000X-2.930000X0.700000X-2.930000X0*%
%TD*%
%TA.AperFunction,Conductor*%
%ADD12C,2.000000*%
%TD*%
G04 APERTURE END LIST*
D10*
%TO.P,J2,b1,Pin_b1*%
%TO.N,/b1*%
X43500000Y-49300000D03*
%TO.P,J2,b2,Pin_b2*%
%TO.N,/b2*%
X47460000Y-49300000D03*
%TO.P,J2,b3,Pin_b3*%
%TO.N,/b3*%
X51420000Y-49300000D03*
%TO.P,J2,b4,Pin_b4*%
%TO.N,/b4*%
X55380000Y-49300000D03*
%TO.P,J2,b5,Pin_b5*%
%TO.N,/b5*%
X59340000Y-49300000D03*
%TO.P,J2,b6,Pin_b6*%
%TO.N,/b6*%
X63300000Y-49300000D03*
%TO.P,J2,b7,Pin_b7*%
%TO.N,/b7*%
X67260000Y-49300000D03*
%TO.P,J2,b8,Pin_b8*%
%TO.N,/b8*%
X71220000Y-49300000D03*
%TO.P,J2,b9,Pin_b9*%
%TO.N,/b9*%
X75180000Y-49300000D03*
%TO.P,J2,b10,Pin_b10*%
%TO.N,/b10*%
X79140000Y-49300000D03*
%TO.P,J2,b11,Pin_b11*%
%TO.N,/b11*%
X83100000Y-49300000D03*
%TO.P,J2,b12,Pin_b12*%
%TO.N,/b12*%
X87060000Y-49300000D03*
%TO.P,J2,b13,Pin_b13*%
%TO.N,/b13*%
X91020000Y-49300000D03*
%TO.P,J2,b14,Pin_b14*%
%TO.N,/b14*%
X94980000Y-49300000D03*
%TO.P,J2,b15,Pin_b15*%
%TO.N,/b15*%
X98940000Y-49300000D03*
%TO.P,J2,b16,Pin_b16*%
%TO.N,/b16*%
X102900000Y-49300000D03*
%TO.P,J2,b17,Pin_b17*%
%TO.N,/b17*%
X106860000Y-49300000D03*
%TO.P,J2,b18,Pin_b18*%
%TO.N,/b18*%
X110820000Y-49300000D03*
%TO.P,J2,b19,Pin_b19*%
%TO.N,/b19*%
X114780000Y-49300000D03*
%TO.P,J2,b20,Pin_b20*%
%TO.N,/b20*%
X118740000Y-49300000D03*
%TO.P,J2,b21,Pin_b21*%
%TO.N,/b21*%
X122700000Y-49300000D03*
%TO.P,J2,b22,Pin_b22*%
%TO.N,/b22*%
X126660000Y-49300000D03*
%TO.P,J2,b23,Pin_b23*%
%TO.N,/b23*%
X130620000Y-49300000D03*
%TO.P,J2,b24,Pin_b24*%
%TO.N,/b24*%
X134580000Y-49300000D03*
%TO.P,J2,b25,Pin_b25*%
%TO.N,/b25*%
X138540000Y-49300000D03*
%TO.P,J2,b26,Pin_b26*%
%TO.N,/b26*%
X142500000Y-49300000D03*
%TO.P,J2,b27,Pin_b27*%
%TO.N,/b27*%
X146460000Y-49300000D03*
%TO.P,J2,b28,Pin_b28*%
%TO.N,/b28*%
X150420000Y-49300000D03*
%TO.P,J2,b29,Pin_b29*%
%TO.N,/b29*%
X154380000Y-49300000D03*
%TO.P,J2,b30,Pin_b30*%
%TO.N,/b30*%
X158340000Y-49300000D03*
%TO.P,J2,b31,Pin_b31*%
%TO.N,/b31*%
X162300000Y-49300000D03*
%TD*%
D11*
%TO.P,J1,b1,Pin_b1*%
%TO.N,/b1*%
X43500000Y-164730000D03*
%TO.P,J1,b2,Pin_b2*%
%TO.N,/b2*%
X47460000Y-164730000D03*
%TO.P,J1,b3,Pin_b3*%
%TO.N,/b3*%
X51420000Y-164730000D03*
%TO.P,J1,b4,Pin_b4*%
%TO.N,/b4*%
X55380000Y-164730000D03*
%TO.P,J1,b5,Pin_b5*%
%TO.N,/b5*%
X59340000Y-164730000D03*
%TO.P,J1,b6,Pin_b6*%
%TO.N,/b6*%
X63300000Y-164730000D03*
%TO.P,J1,b7,Pin_b7*%
%TO.N,/b7*%
X67260000Y-164730000D03*
%TO.P,J1,b8,Pin_b8*%
%TO.N,/b8*%
X71220000Y-164730000D03*
%TO.P,J1,b9,Pin_b9*%
%TO.N,/b9*%
X75180000Y-164730000D03*
%TO.P,J1,b10,Pin_b10*%
%TO.N,/b10*%
X79140000Y-164730000D03*
%TO.P,J1,b11,Pin_b11*%
%TO.N,/b11*%
X83100000Y-164730000D03*
%TO.P,J1,b12,Pin_b12*%
%TO.N,/b12*%
X87060000Y-164730000D03*
%TO.P,J1,b13,Pin_b13*%
%TO.N,/b13*%
X91020000Y-164730000D03*
%TO.P,J1,b14,Pin_b14*%
%TO.N,/b14*%
X94980000Y-164730000D03*
%TO.P,J1,b15,Pin_b15*%
%TO.N,/b15*%
X98940000Y-164730000D03*
%TO.P,J1,b16,Pin_b16*%
%TO.N,/b16*%
X102900000Y-164730000D03*
%TO.P,J1,b17,Pin_b17*%
%TO.N,/b17*%
X106860000Y-164730000D03*
%TO.P,J1,b18,Pin_b18*%
%TO.N,/b18*%
X110820000Y-164730000D03*
%TO.P,J1,b19,Pin_b19*%
%TO.N,/b19*%
X114780000Y-164730000D03*
%TO.P,J1,b20,Pin_b20*%
%TO.N,/b20*%
X118740000Y-164730000D03*
%TO.P,J1,b21,Pin_b21*%
%TO.N,/b21*%
X122700000Y-164730000D03*
%TO.P,J1,b22,Pin_b22*%
%TO.N,/b22*%
X126660000Y-164730000D03*
%TO.P,J1,b23,Pin_b23*%
%TO.N,/b23*%
X130620000Y-164730000D03*
%TO.P,J1,b24,Pin_b24*%
%TO.N,/b24*%
X134580000Y-164730000D03*
%TO.P,J1,b25,Pin_b25*%
%TO.N,/b25*%
X138540000Y-164730000D03*
%TO.P,J1,b26,Pin_b26*%
%TO.N,/b26*%
X142500000Y-164730000D03*
%TO.P,J1,b27,Pin_b27*%
%TO.N,/b27*%
X146460000Y-164730000D03*
%TO.P,J1,b28,Pin_b28*%
%TO.N,/b28*%
X150420000Y-164730000D03*
%TO.P,J1,b29,Pin_b29*%
%TO.N,/b29*%
X154380000Y-164730000D03*
%TO.P,J1,b30,Pin_b30*%
%TO.N,/b30*%
X158340000Y-164730000D03*
%TO.P,J1,b31,Pin_b31*%
%TO.N,/b31*%
X162300000Y-164730000D03*
%TD*%
D12*
%TO.N,/b30*%
X158340000Y-49280000D02*
X158340000Y-164710000D01*
%TO.N,/b25*%
X138540000Y-49280000D02*
X138540000Y-164710000D01*
%TO.N,/b8*%
X71220000Y-49280000D02*
X71220000Y-164710000D01*
%TO.N,/b31*%
X162300000Y-49280000D02*
X162300000Y-164710000D01*
%TO.N,/b12*%
X87060000Y-49280000D02*
X87060000Y-164710000D01*
%TO.N,/b1*%
X43500000Y-49280000D02*
X43500000Y-164710000D01*
%TO.N,/b15*%
X98940000Y-49280000D02*
X98940000Y-164710000D01*
%TO.N,/b27*%
X146460000Y-164710000D02*
X146460000Y-49280000D01*
%TO.N,/b14*%
X94980000Y-49280000D02*
X94980000Y-164710000D01*
%TO.N,/b4*%
X55380000Y-49280000D02*
X55380000Y-164710000D01*
%TO.N,/b28*%
X150420000Y-49280000D02*
X150420000Y-164710000D01*
%TO.N,/b6*%
X63300000Y-49280000D02*
X63300000Y-164710000D01*
%TO.N,/b20*%
X118740000Y-49280000D02*
X118740000Y-164710000D01*
%TO.N,/b22*%
X126660000Y-49280000D02*
X126660000Y-164710000D01*
%TO.N,/b7*%
X67260000Y-49280000D02*
X67260000Y-164710000D01*
%TO.N,/b18*%
X110820000Y-49280000D02*
X110820000Y-164710000D01*
%TO.N,/b5*%
X59340000Y-49280000D02*
X59340000Y-164710000D01*
%TO.N,/b2*%
X47460000Y-49280000D02*
X47460000Y-164710000D01*
%TO.N,/b3*%
X51420000Y-49280000D02*
X51420000Y-164710000D01*
%TO.N,/b29*%
X154380000Y-49280000D02*
X154380000Y-164710000D01*
%TO.N,/b26*%
X142500000Y-49280000D02*
X142500000Y-164710000D01*
%TO.N,/b13*%
X91020000Y-49280000D02*
X91020000Y-164710000D01*
%TO.N,/b9*%
X75180000Y-49280000D02*
X75180000Y-164710000D01*
%TO.N,/b11*%
X83100000Y-49280000D02*
X83100000Y-164710000D01*
%TO.N,/b23*%
X130620000Y-49280000D02*
X130620000Y-164710000D01*
%TO.N,/b10*%
X79140000Y-49280000D02*
X79140000Y-164710000D01*
%TO.N,/b21*%
X122700000Y-49280000D02*
X122700000Y-164710000D01*
%TO.N,/b19*%
X114780000Y-49280000D02*
X114780000Y-164710000D01*
%TO.N,/b17*%
X106860000Y-49280000D02*
X106860000Y-164710000D01*
%TO.N,/b16*%
X102900000Y-49280000D02*
X102900000Y-164710000D01*
%TO.N,/b24*%
X134580000Y-49280000D02*
X134580000Y-164710000D01*
%TD*%
M02*
